HIERARCHY
ROOT Hips
{
	OFFSET 0.000000 0.000000 0.000000 
	CHANNELS 6 Xposition Yposition Zposition Zrotation Yrotation Xrotation
	JOINT LeftUpLeg
	{
		OFFSET 1.363060 -1.794630 0.839290 
		CHANNELS 3 Zrotation Yrotation Xrotation
		JOINT LeftLeg
		{
			OFFSET 2.448110 -6.726130 0.000000 
			CHANNELS 3 Zrotation Yrotation Xrotation
			JOINT LeftFoot
			{
				OFFSET 2.562200 -7.039590 0.000000 
				CHANNELS 3 Zrotation Yrotation Xrotation
				JOINT LeftToeBase
				{
					OFFSET 0.157640 -0.433110 2.322550 
					CHANNELS 3 Zrotation Yrotation Xrotation
					End Site
					{
						OFFSET 0.000000 0.000000 0.000000 
					}
				}
			}
		}
	}
	JOINT RightUpLeg
	{
		OFFSET -1.305520 -1.794630 0.839290 
		CHANNELS 3 Zrotation Yrotation Xrotation
		JOINT RightLeg
		{
			OFFSET -2.542530 -6.985550 0.000000 
			CHANNELS 3 Zrotation Yrotation Xrotation
			JOINT RightFoot
			{
				OFFSET -2.568260 -7.056230 0.000000 
				CHANNELS 3 Zrotation Yrotation Xrotation
				JOINT RightToeBase
				{
					OFFSET -0.164730 -0.452590 2.363150 
					CHANNELS 3 Zrotation Yrotation Xrotation
					End Site
					{
						OFFSET 0.000000 0.000000 0.000000 
					}
				}
			}
		}
	}
	JOINT Spine
	{
		OFFSET 0.028270 2.035590 -0.193380 
		CHANNELS 3 Zrotation Yrotation Xrotation
		JOINT Spine1
		{
			OFFSET 0.056720 2.048850 -0.042750 
			CHANNELS 3 Zrotation Yrotation Xrotation
			JOINT Neck1
			{
				OFFSET -0.054170 1.746240 0.172020 
				CHANNELS 3 Zrotation Yrotation Xrotation
				JOINT Head
				{
					OFFSET 0.104070 1.761360 -0.123970 
					CHANNELS 3 Zrotation Yrotation Xrotation
					End Site
					{
						OFFSET 0.000000 0.000000 0.000000 
					}
				}
			}
			JOINT LeftArm
			{
				OFFSET 3.362410 1.200890 -0.311210 
				CHANNELS 3 Zrotation Yrotation Xrotation
				JOINT LeftForeArm
				{
					OFFSET 4.983000 -0.000000 -0.000000 
					CHANNELS 3 Zrotation Yrotation Xrotation
					JOINT LeftHand
					{
						OFFSET 3.483560 -0.000000 -0.000000 
						CHANNELS 3 Zrotation Yrotation Xrotation
						JOINT LeftHandIndex1
						{
							OFFSET 0.715260 -0.000000 -0.000000 
							CHANNELS 3 Zrotation Yrotation Xrotation
							End Site
							{
								OFFSET 0.000000 0.000000 0.000000 
							}
						}
					}
				}
			}
			JOINT RightArm
			{
				OFFSET -3.136600 1.374050 -0.404650 
				CHANNELS 3 Zrotation Yrotation Xrotation
				JOINT RightForeArm
				{
					OFFSET -5.241900 -0.000000 -0.000000 
					CHANNELS 3 Zrotation Yrotation Xrotation
					JOINT RightHand
					{
						OFFSET -3.444170 -0.000000 -0.000000 
						CHANNELS 3 Zrotation Yrotation Xrotation
						JOINT RightHandIndex1
						{
							OFFSET -0.622530 -0.000000 -0.000000 
							CHANNELS 3 Zrotation Yrotation Xrotation
							End Site
							{
								OFFSET 0.000000 0.000000 0.000000 
							}
						}
					}
				}
			}
		}
	}
}
MOTION
Frames: 13
Frame Time: 0.041667
0.587822 21.188987 18.194310 179.346151 -5.884521 -162.890399 -13.957896 -13.572657 -32.433968 1.011678 10.283263 27.341867 0.516878 -3.727439 2.556864 0.047700 -1.409800 -3.877200 13.825320 2.875699 -23.764155 -5.400171 -15.429780 46.427193 -1.775935 -0.464656 28.914819 -0.106700 2.106000 -5.798700 0.506734 1.151114 -3.179446 -1.889312 0.797401 6.462907 8.924197 -2.834992 1.638755 3.779900 -1.317300 -3.719100 -93.482643 -11.933490 27.234826 11.245522 -18.566463 -1.960087 0.018726 -0.382238 22.585808 -7.125000 0.000000 0.000000 93.007894 -3.451698 14.382143 -22.241296 34.758122 -5.845050 0.931613 -1.514550 24.337283 7.125000 0.000000 0.000000 
0.548052 21.288964 18.060307 179.173674 -5.968652 -163.351694 -14.724853 -13.001712 -30.251038 0.600808 9.391470 24.943718 0.509872 -3.508444 3.268491 0.043500 -1.346900 -3.703800 13.621323 3.349616 -25.657562 -7.208914 -16.888643 52.516178 -1.542803 0.881560 26.276936 -0.000100 -0.048900 0.134400 0.531025 0.906531 -3.145121 -1.716386 0.635756 6.627177 9.036349 -2.718691 1.727452 3.799100 -1.267300 -3.665900 -93.473776 -12.240783 27.506438 11.247056 -18.589575 -1.962465 0.016340 -0.382003 22.776543 -7.125000 0.000000 0.000000 93.170661 -3.673322 13.617596 -22.089170 34.599976 -5.795794 0.916681 -1.522965 24.781768 7.125000 0.000000 0.000000 
0.510823 21.366405 17.933154 179.213097 -6.104292 -163.803033 -15.167727 -12.421193 -28.264969 0.244202 8.541306 22.677884 0.488346 -3.117270 4.006781 0.036800 -1.239000 -3.406700 13.565762 3.799063 -27.604227 -8.888896 -18.044220 57.930903 -1.234202 2.132215 22.161266 -0.001600 -0.254600 0.699500 0.580798 0.637029 -3.129823 -1.605914 0.474742 6.667872 9.094537 -2.614448 1.817687 3.795000 -1.220800 -3.609700 -93.516630 -12.508145 27.491900 11.262826 -18.622193 -1.968614 0.014485 -0.379589 22.964102 -7.125000 0.000000 0.000000 93.355070 -3.694647 12.683956 -21.595030 34.112012 -5.607151 0.879889 -1.540685 25.346283 7.125000 0.000000 0.000000 
0.477902 21.429595 17.807326 179.265424 -6.122335 -164.232535 -15.542371 -11.721892 -26.519612 -0.038702 7.788403 20.707498 0.477279 -2.862938 4.681409 0.028300 -1.086800 -2.987800 13.496717 4.123034 -29.633364 -10.342105 -18.917118 62.434608 -1.016691 3.204557 17.885324 -0.000400 -0.131600 0.361600 0.628945 0.408691 -3.129418 -1.467334 0.338416 6.621970 9.133340 -2.510111 1.847843 3.787700 -1.175300 -3.585300 -93.535781 -12.579552 27.503154 11.363388 -18.784228 -2.003993 0.013914 -0.379550 22.767230 -7.125000 0.000000 0.000000 93.565499 -4.073142 11.924010 -21.517014 34.012385 -5.588425 0.867777 -1.561290 25.442374 7.125000 0.000000 0.000000 
0.441005 21.481738 17.680062 179.226362 -6.081578 -164.600567 -16.027528 -10.893727 -25.064149 -0.243254 7.172082 19.132105 0.497257 -2.986790 5.228680 0.026900 -1.058300 -2.909300 13.336412 4.135705 -31.736059 -11.492342 -19.543302 65.890670 -0.923557 4.180721 13.841798 -0.000900 -0.190200 0.522600 0.670707 0.195225 -3.125963 -1.298868 0.211248 6.633035 9.232674 -2.408077 1.805134 3.838100 -1.130400 -3.603500 -93.570520 -12.574023 27.521819 11.489716 -18.988104 -2.048587 0.013263 -0.381445 22.399943 -7.125000 0.000000 0.000000 93.681514 -4.772557 11.480837 -21.849680 34.309346 -5.742584 0.890179 -1.579185 24.938012 7.125000 0.000000 0.000000 
0.400903 21.518194 17.556886 179.345543 -5.964439 -164.912745 -16.314659 -10.016367 -23.904434 -0.391375 6.673234 17.881696 0.525061 -3.215843 5.635584 0.041900 -1.321900 -3.634900 13.330581 4.154207 -33.751269 -12.300316 -19.977081 68.260833 -0.918391 4.950627 9.914970 -0.001500 0.248100 -0.681700 0.708085 0.103412 -3.136681 -1.264064 0.165608 6.550855 9.346635 -2.364036 1.703125 3.914700 -1.114900 -3.708500 -93.713480 -12.546457 27.298279 11.527683 -19.038905 -2.059508 0.010803 -0.381013 22.364825 -7.125000 0.000000 0.000000 93.882916 -5.416962 10.602612 -21.900572 34.341064 -5.785135 0.908908 -1.590201 24.735274 7.125000 0.000000 0.000000 
0.362238 21.543713 17.433710 179.529937 -5.660082 -165.289154 -16.489240 -9.182673 -22.851819 -0.489904 6.304919 16.983101 0.538590 -3.349215 5.762408 0.060900 -1.592100 -4.379600 13.370375 4.358454 -35.471482 -12.757361 -20.258128 69.564210 -0.968735 5.411744 6.546377 -0.004000 -0.410700 1.128400 0.732196 0.133345 -3.125869 -1.323198 0.180875 6.525752 9.351473 -2.404056 1.703110 3.903300 -1.139700 -3.758300 -93.824074 -12.666405 27.065524 11.465633 -18.930129 -2.033872 0.005558 -0.380574 22.330164 -7.125000 0.000000 0.000000 94.260831 -5.887154 9.331861 -21.773606 34.210924 -5.747238 0.918899 -1.586958 24.926274 7.125000 0.000000 0.000000 
0.329317 21.562714 17.307440 179.719906 -5.247757 -165.841717 -16.615776 -8.386222 -21.788802 -0.539447 6.082697 16.477459 0.544457 -3.453850 5.644015 0.059500 -1.573400 -4.328100 13.440694 4.639496 -36.810213 -12.865093 -20.403115 69.862463 -1.146728 6.232718 3.546226 -0.007300 -0.551800 1.516300 0.769066 0.121662 -3.068088 -1.280535 0.157106 6.678223 9.385513 -2.380119 1.844147 3.895600 -1.127000 -3.647800 -93.896432 -13.024046 26.618183 11.311825 -18.694804 -1.978554 -0.001582 -0.376478 22.430092 -7.125000 0.000000 0.000000 94.524387 -6.143000 8.494299 -21.653901 34.093195 -5.711532 0.936663 -1.581028 25.030865 7.125000 0.000000 0.000000 
0.296507 21.570005 17.185037 179.809291 -4.900641 -166.300782 -16.792142 -7.759897 -20.991701 -0.544158 6.000923 16.347246 0.556425 -3.667219 5.402819 0.040700 -1.302500 -3.581400 13.482814 4.760528 -38.094262 -12.640372 -20.427783 69.189175 -1.334534 6.881664 1.450262 -0.011300 -0.685900 1.884800 0.802168 0.067512 -3.030720 -1.230131 0.117058 6.759350 9.518975 -2.326630 1.915504 3.960200 -1.101900 -3.598000 -94.017962 -13.300588 25.941434 11.128460 -18.413911 -1.914781 -0.007418 -0.369537 22.898071 -7.125000 0.000000 0.000000 94.614325 -6.359730 8.036013 -21.325372 33.779506 -5.585333 0.932838 -1.579976 25.149538 7.125000 0.000000 0.000000 
0.268447 21.557301 17.066500 179.463042 -4.777361 -166.692013 -17.420001 -7.276694 -20.384008 -0.513968 6.025495 16.496080 0.590038 -4.188057 5.090986 0.028700 -1.092900 -3.004500 13.202591 4.481429 -39.268951 -12.147780 -20.327598 67.700088 -1.544159 7.438571 -0.307554 -0.001400 -0.245700 0.675100 0.801577 -0.060959 -3.018435 -1.171488 0.034352 6.723846 9.681329 -2.308969 1.950165 4.027700 -1.100500 -3.608600 -94.074304 -13.457203 25.411763 10.969942 -18.168427 -1.860926 -0.011742 -0.365334 23.307730 -7.125000 0.000000 0.000000 94.725823 -6.577168 7.556299 -20.858806 33.325876 -5.393572 0.908637 -1.573000 25.455712 7.125000 0.000000 0.000000 
0.244475 21.538079 16.939126 179.443211 -4.615075 -167.044275 -17.647646 -6.729413 -19.948363 -0.453946 6.141178 16.899278 0.634480 -4.794758 4.593158 0.031500 -1.145900 -3.150200 13.316163 4.352281 -40.176949 -11.388637 -20.107046 65.470392 -1.724719 7.733487 -1.690849 -0.001100 -0.211600 0.581400 0.823382 -0.153980 -2.998281 -1.166437 -0.021340 6.805880 9.872691 -2.286374 2.155797 4.094800 -1.091400 -3.502300 -94.083836 -13.673405 24.905600 10.770045 -17.867541 -1.795852 -0.014952 -0.361288 23.690906 -7.125000 0.000000 0.000000 94.825553 -6.661267 7.097751 -20.343843 32.834541 -5.187406 0.887848 -1.558983 25.964494 7.125000 0.000000 0.000000 
0.226799 21.516316 16.807775 179.333592 -4.407366 -167.354993 -17.918196 -6.216253 -19.599561 -0.376250 6.307592 17.436666 0.681473 -5.423739 4.021172 0.030900 -1.134600 -3.119100 13.398828 4.243592 -40.885967 -10.444885 -19.765850 62.688571 -1.857426 7.628434 -2.934038 -0.000700 -0.169700 0.466300 0.852211 -0.276871 -2.988667 -1.024577 -0.102197 6.875581 10.044219 -2.252823 2.450987 4.151200 -1.070100 -3.349800 -94.107444 -13.855588 24.254987 10.505140 -17.487286 -1.715408 -0.016170 -0.353282 24.287657 -7.125000 0.000000 0.000000 94.820351 -6.772697 6.914437 -19.936132 32.432768 -5.026166 0.875421 -1.543475 26.504836 7.125000 0.000000 0.000000 
0.211665 21.491902 16.678081 179.212627 -4.272823 -167.559575 -18.144006 -5.793318 -19.337432 -0.299766 6.465723 17.949639 0.724898 -5.996063 3.562852 0.021600 -0.948100 -2.606000 13.480756 4.095119 -41.482591 -9.356642 -19.296828 59.458101 -1.958028 7.304427 -4.009346 -0.004600 0.437100 -1.201000 0.878748 -0.433982 -3.003526 -0.933020 -0.191630 6.864630 10.183788 -2.081741 2.712203 4.166300 -0.568100 -3.262200 -94.066321 -13.865209 23.785846 10.285597 -17.175917 -1.651417 -0.015730 -0.347314 24.893253 -7.125000 0.000000 0.000000 94.878159 -6.951459 6.722630 -19.619714 32.120673 -4.908766 0.879314 -1.540575 27.106022 7.125000 0.000000 0.000000 
